# xmcd CD database file
#
# Track frame offsets:
#	150
#	11335
#	29247
#	56237
#	76122
#	89870
#	113032
#	134032
#	169225
#	181735
#	195725
#	209747
#	223620
#	238725
#	249745
#	264025
#	278995
#	290542
#	306197
#	318370
#
# Disc length: 4400 seconds
#
# Revision: 1
# Processed by: cddbd v1.5.1PL0 Copyright (c) Steve Scherf et al.
# Submitted via: CDex 1.51
#
DISCID=35112e14
DTITLE=Andre Previn - Camelot and Thinking Of You
DYEAR=1999
DGENRE=Jazz
TTITLE0=Camelot - I Wonder What The King Is Doing Tonight
TTITLE1=Camelot - What Do The Simple Folk Do
TTITLE2=Camelot - I Loved You Once In Silence
TTITLE3=Camelot - Then You May Take Me To The Fair
TTITLE4=Camelot - March
TTITLE5=Camelot - If Ever I Would Leave You
TTITLE6=Camelot - The Lusty Month Of May
TTITLE7=Camelot - The Simple Joys Of Maidenhood
TTITLE8=Thinking Of You - Thinking Of You
TTITLE9=Thinking Of You - When Will I Hear From You
TTITLE10=Thinking Of You - I'm Gonna Sit Right Down And Write Myself A Letter
TTITLE11=Thinking Of You - P.S. I Love You
TTITLE12=Thinking Of You - Hello My Lover, Goodbye
TTITLE13=Thinking Of You - Yours Sincerely
TTITLE14=Thinking Of You - What's New
TTITLE15=Thinking Of You - Lost Letter
TTITLE16=Thinking Of You - I Remember You
TTITLE17=Thinking Of You - Don't Worry About Me
TTITLE18=Thinking Of You - Do Nothin' Till You Hear From Me
TTITLE19=Thinking Of You - Signing Off
EXTD=YEAR: 1999
EXTT0=
EXTT1=
EXTT2=
EXTT3=
EXTT4=
EXTT5=
EXTT6=
EXTT7=
EXTT8=
EXTT9=
EXTT10=
EXTT11=
EXTT12=
EXTT13=
EXTT14=
EXTT15=
EXTT16=
EXTT17=
EXTT18=
EXTT19=
PLAYORDER=
